<mxfile host="Electron" agent="Mozilla/5.0 (X11; Linux x86_64) AppleWebKit/537.36 (KHTML, like Gecko) draw.io/24.7.8 Chrome/128.0.6613.36 Electron/32.0.1 Safari/537.36" version="24.7.8">
  <diagram name="Страница — 1" id="Zvr2eW7H0rXLNG6UFAMz">
    <mxGraphModel dx="980" dy="406" grid="1" gridSize="10" guides="1" tooltips="1" connect="1" arrows="1" fold="1" page="1" pageScale="1" pageWidth="827" pageHeight="1169" math="0" shadow="0">
      <root>
        <mxCell id="0" />
        <mxCell id="1" parent="0" />
        <UserObject label="&lt;div style=&quot;font-size: 14px;&quot;&gt;&lt;span style=&quot;background-color: initial; font-size: 14px;&quot;&gt;&lt;font color=&quot;#990488&quot; style=&quot;font-size: 14px;&quot;&gt;SELECT&lt;/font&gt;&amp;nbsp;&lt;font color=&quot;#425dc0&quot; style=&quot;font-size: 14px;&quot;&gt;*&lt;/font&gt;&lt;font color=&quot;#990488&quot; style=&quot;font-size: 14px;&quot;&gt;&amp;nbsp;FROM&lt;/font&gt;&lt;/span&gt;&lt;/div&gt;&lt;div style=&quot;font-size: 14px;&quot;&gt;&lt;span style=&quot;background-color: initial; font-size: 14px;&quot;&gt;&lt;br style=&quot;font-size: 14px;&quot;&gt;&lt;/span&gt;&lt;/div&gt;&lt;div style=&quot;font-size: 14px;&quot;&gt;&lt;span style=&quot;background-color: initial; font-size: 14px;&quot;&gt;&amp;nbsp;&lt;/span&gt;&lt;/div&gt;&lt;div style=&quot;font-size: 14px;&quot;&gt;&lt;span style=&quot;background-color: initial; font-size: 14px;&quot;&gt;&lt;font color=&quot;#425dc0&quot; style=&quot;font-size: 14px;&quot;&gt;&lt;br style=&quot;font-size: 14px;&quot;&gt;&lt;/font&gt;&lt;/span&gt;&lt;/div&gt;&lt;div style=&quot;font-size: 14px;&quot;&gt;&lt;span style=&quot;background-color: initial; font-size: 14px;&quot;&gt;&lt;font color=&quot;#425dc0&quot; style=&quot;font-size: 14px;&quot;&gt;&lt;br style=&quot;font-size: 14px;&quot;&gt;&lt;/font&gt;&lt;/span&gt;&lt;/div&gt;&lt;div style=&quot;font-size: 14px;&quot;&gt;&lt;span style=&quot;background-color: initial; font-size: 14px;&quot;&gt;&lt;font color=&quot;#425dc0&quot; style=&quot;font-size: 14px;&quot;&gt;&lt;br style=&quot;font-size: 14px;&quot;&gt;&lt;/font&gt;&lt;/span&gt;&lt;/div&gt;&lt;div style=&quot;font-size: 14px;&quot;&gt;&lt;span style=&quot;background-color: initial; font-size: 14px;&quot;&gt;&lt;font color=&quot;#425dc0&quot; style=&quot;font-size: 14px;&quot;&gt;tbl1 t1&lt;/font&gt;&lt;font color=&quot;#990488&quot; style=&quot;font-size: 14px;&quot;&gt;&amp;nbsp;&lt;/font&gt;&lt;/span&gt;&lt;/div&gt;&lt;div style=&quot;font-size: 14px;&quot;&gt;&lt;span style=&quot;background-color: initial; color: rgb(153, 4, 136); font-size: 14px;&quot;&gt;&lt;br style=&quot;font-size: 14px;&quot;&gt;&lt;/span&gt;&lt;/div&gt;&lt;div style=&quot;font-size: 14px;&quot;&gt;&lt;span style=&quot;background-color: initial; color: rgb(153, 4, 136); font-size: 14px;&quot;&gt;&lt;span style=&quot;white-space: pre; font-size: 14px;&quot;&gt;&#x9;&lt;/span&gt;&amp;nbsp; &amp;nbsp;JOIN&amp;nbsp;&lt;/span&gt;&lt;/div&gt;&lt;div style=&quot;font-size: 14px;&quot;&gt;&lt;span style=&quot;background-color: initial; color: rgb(66, 93, 192); font-size: 14px;&quot;&gt;&lt;br style=&quot;font-size: 14px;&quot;&gt;&lt;/span&gt;&lt;/div&gt;&lt;div style=&quot;font-size: 14px;&quot;&gt;&lt;span style=&quot;background-color: initial; color: rgb(66, 93, 192); font-size: 14px;&quot;&gt;tbl2 t2&amp;nbsp; &amp;nbsp;&amp;nbsp;&lt;/span&gt;&lt;font color=&quot;#990488&quot; style=&quot;background-color: initial; font-size: 14px;&quot;&gt;USING&lt;/font&gt;&lt;span style=&quot;background-color: initial; color: rgb(66, 93, 192); font-size: 14px;&quot;&gt;&amp;nbsp;&lt;/span&gt;&lt;font color=&quot;#333333&quot; style=&quot;background-color: initial; color: rgb(51, 51, 51); font-size: 14px;&quot;&gt;(&lt;/font&gt;&lt;font color=&quot;#425dc0&quot; style=&quot;background-color: initial; font-size: 14px;&quot;&gt;id&lt;/font&gt;&lt;font color=&quot;#333333&quot; style=&quot;background-color: initial; color: rgb(51, 51, 51); font-size: 14px;&quot;&gt;)&lt;/font&gt;&lt;br style=&quot;font-size: 14px;&quot;&gt;&lt;/div&gt;&lt;div style=&quot;color: rgb(51, 51, 51); font-size: 14px;&quot;&gt;&lt;font color=&quot;#333333&quot; style=&quot;font-size: 14px;&quot;&gt;&lt;br style=&quot;font-size: 14px;&quot;&gt;&lt;/font&gt;&lt;/div&gt;&lt;div style=&quot;font-size: 14px;&quot;&gt;&lt;br style=&quot;font-size: 14px;&quot;&gt;&lt;/div&gt;&lt;div style=&quot;font-size: 14px;&quot;&gt;&lt;font color=&quot;#990488&quot; style=&quot;font-size: 14px;&quot;&gt;&lt;span style=&quot;white-space: pre; font-size: 14px;&quot;&gt;&#x9;&lt;/span&gt;&lt;span style=&quot;white-space: pre; font-size: 14px;&quot;&gt;&#x9;&lt;/span&gt;&lt;span style=&quot;white-space: pre; font-size: 14px;&quot;&gt;&#x9;&lt;/span&gt;&lt;span style=&quot;white-space: pre; font-size: 14px;&quot;&gt;&#x9;&lt;/span&gt;LEFT OUTER JOIN&lt;/font&gt;&lt;/div&gt;&lt;div style=&quot;font-size: 14px;&quot;&gt;&lt;font color=&quot;#990488&quot; style=&quot;font-size: 14px;&quot;&gt;&lt;br style=&quot;font-size: 14px;&quot;&gt;&lt;/font&gt;&lt;/div&gt;&lt;div style=&quot;font-size: 14px;&quot;&gt;&lt;font color=&quot;#425dc0&quot; style=&quot;font-size: 14px;&quot;&gt;&lt;br style=&quot;font-size: 14px;&quot;&gt;&lt;/font&gt;&lt;/div&gt;&lt;div style=&quot;font-size: 14px;&quot;&gt;&lt;font color=&quot;#425dc0&quot; style=&quot;font-size: 14px;&quot;&gt;generate_series&lt;/font&gt;&lt;font color=&quot;#545454&quot; style=&quot;font-size: 14px;&quot;&gt;(&lt;/font&gt;&lt;font color=&quot;#b36844&quot; style=&quot;font-size: 14px;&quot;&gt;1&lt;/font&gt;&lt;font color=&quot;#990488&quot; style=&quot;font-size: 14px;&quot;&gt;, &lt;/font&gt;&lt;font color=&quot;#b36844&quot; style=&quot;font-size: 14px;&quot;&gt;100&lt;/font&gt;&lt;font color=&quot;#545454&quot; style=&quot;font-size: 14px;&quot;&gt;)&lt;/font&gt;&lt;font color=&quot;#990488&quot; style=&quot;font-size: 14px;&quot;&gt; &lt;/font&gt;&lt;font color=&quot;#425dc0&quot; style=&quot;font-size: 14px;&quot;&gt;g&lt;/font&gt;&lt;font color=&quot;#333333&quot; style=&quot;background-color: initial; color: rgb(51, 51, 51); font-size: 14px;&quot;&gt;(&lt;/font&gt;&lt;font color=&quot;#425dc0&quot; style=&quot;background-color: initial; font-size: 14px;&quot;&gt;id&lt;/font&gt;&lt;font color=&quot;#333333&quot; style=&quot;background-color: initial; color: rgb(51, 51, 51); font-size: 14px;&quot;&gt;)&lt;/font&gt;&lt;/div&gt;&lt;div style=&quot;font-size: 14px;&quot;&gt;&lt;font color=&quot;#990488&quot; style=&quot;font-size: 14px;&quot;&gt;&lt;br style=&quot;font-size: 14px;&quot;&gt;&lt;/font&gt;&lt;/div&gt;&lt;div style=&quot;font-size: 14px;&quot;&gt;&lt;font color=&quot;#990488&quot; style=&quot;font-size: 14px;&quot;&gt;&amp;nbsp; &amp;nbsp; &amp;nbsp; &amp;nbsp; &amp;nbsp; &amp;nbsp; &amp;nbsp; &amp;nbsp; &amp;nbsp; &amp;nbsp; &amp;nbsp; &amp;nbsp; &amp;nbsp; &amp;nbsp; &amp;nbsp; &amp;nbsp; USING&amp;nbsp;&lt;/font&gt;&lt;font color=&quot;#333333&quot; style=&quot;background-color: initial; color: rgb(51, 51, 51); font-size: 14px;&quot;&gt;(&lt;/font&gt;&lt;font color=&quot;#425dc0&quot; style=&quot;background-color: initial; font-size: 14px;&quot;&gt;id&lt;/font&gt;&lt;font color=&quot;#333333&quot; style=&quot;background-color: initial; color: rgb(51, 51, 51); font-size: 14px;&quot;&gt;),&lt;/font&gt;&lt;/div&gt;&lt;div style=&quot;color: rgb(51, 51, 51); font-size: 14px;&quot;&gt;&lt;font color=&quot;#333333&quot; style=&quot;font-size: 14px;&quot;&gt;&lt;br style=&quot;font-size: 14px;&quot;&gt;&lt;/font&gt;&lt;/div&gt;&lt;font color=&quot;#333333&quot; style=&quot;font-size: 14px;&quot;&gt;&lt;div style=&quot;font-size: 14px;&quot;&gt;&lt;font color=&quot;#333333&quot; style=&quot;font-size: 14px;&quot;&gt;&lt;br style=&quot;font-size: 14px;&quot;&gt;&lt;/font&gt;&lt;/div&gt;(&lt;/font&gt;&lt;font color=&quot;#990488&quot; style=&quot;background-color: initial; font-size: 14px;&quot;&gt;SELECT&lt;/font&gt;&lt;span style=&quot;background-color: initial; font-size: 14px;&quot;&gt; &lt;/span&gt;&lt;font color=&quot;#990488&quot; style=&quot;background-color: initial; font-size: 14px;&quot;&gt;MAX&lt;/font&gt;&lt;font color=&quot;#333333&quot; style=&quot;background-color: initial; font-size: 14px;&quot;&gt;(&lt;/font&gt;&lt;font color=&quot;#425dc0&quot; style=&quot;background-color: initial; font-size: 14px;&quot;&gt;id&lt;/font&gt;&lt;font color=&quot;#333333&quot; style=&quot;background-color: initial; font-size: 14px;&quot;&gt;)&lt;/font&gt;&lt;span style=&quot;background-color: initial; font-size: 14px;&quot;&gt;&amp;nbsp;&lt;/span&gt;&lt;font color=&quot;#990488&quot; style=&quot;background-color: initial; font-size: 14px;&quot;&gt;FROM&lt;/font&gt;&lt;span style=&quot;background-color: initial; font-size: 14px;&quot;&gt; &lt;/span&gt;&lt;font color=&quot;#425dc0&quot; style=&quot;background-color: initial; font-size: 14px;&quot;&gt;tbl3&lt;/font&gt;&lt;span style=&quot;background-color: initial; font-size: 14px;&quot;&gt;&amp;nbsp;&lt;/span&gt;&lt;font color=&quot;#990488&quot; style=&quot;background-color: initial; font-size: 14px;&quot;&gt;GROUP BY&lt;/font&gt;&lt;font color=&quot;#425dc0&quot; style=&quot;background-color: initial; font-size: 14px;&quot;&gt; value&lt;/font&gt;&lt;span style=&quot;background-color: initial; color: rgb(51, 51, 51); font-size: 14px;&quot;&gt;)&lt;/span&gt;" link="explain select t1.value, max(t1.id) from tbl t1&#xa;join&#xa;(select id from tbl where value = 1 or value = 2) t2&#xa;using (id)&#xa;group by t1.value&#xa;having count(t1.id) &gt; 100;" id="W669uPvKT1c0R3ufBaIu-1">
          <mxCell style="text;html=1;align=left;verticalAlign=middle;whiteSpace=wrap;rounded=0;fontFamily=Courier New;shadow=0;horizontal=1;spacing=2;fontSize=14;" parent="1" vertex="1">
            <mxGeometry x="250" y="104" width="480" height="430" as="geometry" />
          </mxCell>
        </UserObject>
        <mxCell id="gRIM112ALjNljpeR_7gf-1" value="" style="rounded=1;whiteSpace=wrap;html=1;fillColor=none;align=left;verticalAlign=top;arcSize=13;" parent="1" vertex="1">
          <mxGeometry x="246" y="223" width="75" height="30" as="geometry" />
        </mxCell>
        <mxCell id="gRIM112ALjNljpeR_7gf-2" value="RTE_RELATION" style="text;html=1;align=center;verticalAlign=middle;whiteSpace=wrap;rounded=0;fontSize=10;" parent="1" vertex="1">
          <mxGeometry x="235.5" y="197" width="94" height="30" as="geometry" />
        </mxCell>
        <mxCell id="gRIM112ALjNljpeR_7gf-3" value="" style="rounded=1;whiteSpace=wrap;html=1;fillColor=none;align=left;verticalAlign=top;arcSize=13;" parent="1" vertex="1">
          <mxGeometry x="246" y="296" width="75" height="30" as="geometry" />
        </mxCell>
        <mxCell id="gRIM112ALjNljpeR_7gf-4" value="RTE_RELATION" style="text;html=1;align=center;verticalAlign=middle;whiteSpace=wrap;rounded=0;fontSize=10;" parent="1" vertex="1">
          <mxGeometry x="236.5" y="269" width="94" height="30" as="geometry" />
        </mxCell>
        <mxCell id="gRIM112ALjNljpeR_7gf-5" value="" style="rounded=1;whiteSpace=wrap;html=1;fillColor=none;align=left;verticalAlign=top;arcSize=4;" parent="1" vertex="1">
          <mxGeometry x="239.5" y="203" width="210.5" height="132" as="geometry" />
        </mxCell>
        <mxCell id="gRIM112ALjNljpeR_7gf-6" value="RTE_JOIN" style="text;html=1;align=center;verticalAlign=middle;whiteSpace=wrap;rounded=0;fontSize=10;" parent="1" vertex="1">
          <mxGeometry x="223" y="180" width="94" height="30" as="geometry" />
        </mxCell>
        <mxCell id="gRIM112ALjNljpeR_7gf-7" value="" style="rounded=1;whiteSpace=wrap;html=1;fillColor=none;align=left;verticalAlign=top;arcSize=4;" parent="1" vertex="1">
          <mxGeometry x="246" y="404" width="274" height="31" as="geometry" />
        </mxCell>
        <mxCell id="gRIM112ALjNljpeR_7gf-8" value="RTE_FUNCTION" style="text;html=1;align=center;verticalAlign=middle;whiteSpace=wrap;rounded=0;fontSize=10;" parent="1" vertex="1">
          <mxGeometry x="239.5" y="379" width="94" height="30" as="geometry" />
        </mxCell>
        <mxCell id="gRIM112ALjNljpeR_7gf-9" value="" style="rounded=1;whiteSpace=wrap;html=1;fillColor=none;align=left;verticalAlign=top;arcSize=4;" parent="1" vertex="1">
          <mxGeometry x="239.5" y="354" width="443.5" height="111" as="geometry" />
        </mxCell>
        <mxCell id="gRIM112ALjNljpeR_7gf-10" value="RTE_JOIN" style="text;html=1;align=center;verticalAlign=middle;whiteSpace=wrap;rounded=0;fontSize=10;" parent="1" vertex="1">
          <mxGeometry x="225" y="331" width="94" height="30" as="geometry" />
        </mxCell>
        <mxCell id="gRIM112ALjNljpeR_7gf-11" value="" style="rounded=1;whiteSpace=wrap;html=1;fillColor=none;align=left;verticalAlign=top;arcSize=13;" parent="1" vertex="1">
          <mxGeometry x="245" y="493" width="380" height="30" as="geometry" />
        </mxCell>
        <mxCell id="gRIM112ALjNljpeR_7gf-12" value="RTE_SUBQUERY" style="text;html=1;align=center;verticalAlign=middle;whiteSpace=wrap;rounded=0;fontSize=10;" parent="1" vertex="1">
          <mxGeometry x="239.5" y="468" width="94" height="30" as="geometry" />
        </mxCell>
        <mxCell id="gRIM112ALjNljpeR_7gf-13" value="" style="rounded=1;whiteSpace=wrap;html=1;fillColor=none;align=left;verticalAlign=top;arcSize=2;" parent="1" vertex="1">
          <mxGeometry x="229.5" y="184" width="464.5" height="290" as="geometry" />
        </mxCell>
        <mxCell id="gRIM112ALjNljpeR_7gf-14" value="RTE_JOIN" style="text;html=1;align=center;verticalAlign=middle;whiteSpace=wrap;rounded=0;fontSize=10;" parent="1" vertex="1">
          <mxGeometry x="223" y="160" width="94" height="30" as="geometry" />
        </mxCell>
        <mxCell id="gRIM112ALjNljpeR_7gf-15" value="" style="rounded=1;whiteSpace=wrap;html=1;fillColor=none;align=left;verticalAlign=top;arcSize=2;" parent="1" vertex="1">
          <mxGeometry x="223" y="166" width="487" height="364" as="geometry" />
        </mxCell>
        <mxCell id="gRIM112ALjNljpeR_7gf-16" value="RANGE TABLE" style="text;html=1;align=center;verticalAlign=middle;whiteSpace=wrap;rounded=0;fontSize=10;" parent="1" vertex="1">
          <mxGeometry x="210" y="140" width="94" height="30" as="geometry" />
        </mxCell>
      </root>
    </mxGraphModel>
  </diagram>
</mxfile>
